<svg id="Layer_1" data-name="Layer 1" xmlns="http://www.w3.org/2000/svg" viewBox="0 0 28.95 44.11"><defs><style>.cls-1{fill:#5c3978;}.cls-1,.cls-3{stroke:#fff;stroke-miterlimit:10;}.cls-2{fill:#fff;}.cls-3{fill:none;stroke-linecap:round;stroke-width:2px;}</style></defs><path class="cls-1" d="M15,33.47c.16,1.78.51,3.44.77,5.21s.89,3.34-.87,4.53a2.06,2.06,0,0,1-2.53-.07c-1.45-1.18-1-2.73-.7-4.26a27.74,27.74,0,0,0,.18-9.18c-.21-1.4-.62-2.34-2.13-2.5S8.4,28.46,8.62,30.44c.2,1.81-.31,2.7-2,2.75a1.66,1.66,0,0,1-1.75-2.06C6.19,26,3.14,24,1.46,19.62a13.8,13.8,0,0,1,5.85-17C12.33-.3,17.36-.22,22.19,3s6.66,8,6.19,13.61a16.65,16.65,0,0,1-1.93,7c-1.86,3.22-3.14,6.41-2,10.2.33,1.11.14,2.56-1.37,2.66s-1.94-1.31-1.7-2.46c.45-2.19,1.95-4.63-.62-5.37a5,5,0,0,0-4.7,1.21A5.29,5.29,0,0,0,15,33.47Z"/><circle class="cls-2" cx="9.19" cy="11.19" r="1.94"/><circle class="cls-2" cx="19.27" cy="11.19" r="1.94"/><path class="cls-3" d="M19.76,16.49a5.57,5.57,0,1,1-11.13,0"/></svg>